HIERARCHY
ROOT joint_Root
{
	OFFSET 0.0 0.0 0.0
	CHANNELS 6 Xposition Yposition Zposition Zrotation Xrotation Yrotation 
	JOINT Hips
	{
		OFFSET -17.1583 93.1646 452.98
		CHANNELS 6 Xposition Yposition Zposition Zrotation Xrotation Yrotation 
		JOINT Spine
		{
			OFFSET 15.7357 0.0 0.0
			CHANNELS 6 Xposition Yposition Zposition Zrotation Xrotation Yrotation 
			JOINT Chest
			{
				OFFSET 8.98455 -0.406207 0.0
				CHANNELS 6 Xposition Yposition Zposition Zrotation Xrotation Yrotation 
				JOINT Neck
				{
					OFFSET 16.3773 0.0 0.0
					CHANNELS 6 Xposition Yposition Zposition Zrotation Xrotation Yrotation 
					JOINT Head
					{
						OFFSET 6.45672 0.0 0.0
						CHANNELS 6 Xposition Yposition Zposition Zrotation Xrotation Yrotation 
						End Site
						{
							OFFSET 0.0 0.0 0.0
						}
					}
				}
				JOINT Shoulder_L
				{
					OFFSET 12.9942 -0.242716 4.98039
					CHANNELS 6 Xposition Yposition Zposition Zrotation Xrotation Yrotation 
					JOINT UpperArm_L
					{
						OFFSET 5.34809 0.0 0.0
						CHANNELS 6 Xposition Yposition Zposition Zrotation Xrotation Yrotation 
						JOINT LowerArm_L
						{
							OFFSET 24.3286 1.87007e-05 0.0
							CHANNELS 6 Xposition Yposition Zposition Zrotation Xrotation Yrotation 
							JOINT Hand_L
							{
								OFFSET 22.2916 0.0 0.0
								CHANNELS 6 Xposition Yposition Zposition Zrotation Xrotation Yrotation 
								End Site
								{
									OFFSET 0.0 0.0 0.0
								}
							}
						}
					}
				}
				JOINT Shoulder_R
				{
					OFFSET 12.9945 -0.242716 -4.98039
					CHANNELS 6 Xposition Yposition Zposition Zrotation Xrotation Yrotation 
					JOINT UpperArm_R
					{
						OFFSET -5.34813 0.0 0.0
						CHANNELS 6 Xposition Yposition Zposition Zrotation Xrotation Yrotation 
						JOINT LowerArm_R
						{
							OFFSET -24.3289 0.000322201 0.0
							CHANNELS 6 Xposition Yposition Zposition Zrotation Xrotation Yrotation 
							JOINT Hand_R
							{
								OFFSET -22.2915 -0.000108084 0.0
								CHANNELS 6 Xposition Yposition Zposition Zrotation Xrotation Yrotation 
								End Site
								{
									OFFSET 0.0 0.0 0.0
								}
							}
						}
					}
				}
			}
		}
		JOINT UpperLeg_L
		{
			OFFSET -2.19248 -6.46944 0.0
			CHANNELS 6 Xposition Yposition Zposition Zrotation Xrotation Yrotation 
			JOINT LowerLeg_L
			{
				OFFSET 39.0811 0.0 -1.23785e-05
				CHANNELS 6 Xposition Yposition Zposition Zrotation Xrotation Yrotation 
				JOINT Foot_L
				{
					OFFSET 40.9854 0.0 -1.26872e-05
					CHANNELS 6 Xposition Yposition Zposition Zrotation Xrotation Yrotation 
					JOINT Toes_L
					{
						OFFSET 11.7543 0.0 0.0
						CHANNELS 6 Xposition Yposition Zposition Zrotation Xrotation Yrotation 
						End Site
						{
							OFFSET 0.0 0.0 0.0
						}
					}
				}
			}
		}
		JOINT UpperLeg_R
		{
			OFFSET -2.19251 6.46944 0.0
			CHANNELS 6 Xposition Yposition Zposition Zrotation Xrotation Yrotation 
			JOINT LowerLeg_R
			{
				OFFSET -39.0811 -0.00228153 -0.0401928
				CHANNELS 6 Xposition Yposition Zposition Zrotation Xrotation Yrotation 
				JOINT Foot_R
				{
					OFFSET -40.9854 0.0 0.0
					CHANNELS 6 Xposition Yposition Zposition Zrotation Xrotation Yrotation 
					JOINT Toes_R
					{
						OFFSET -11.7543 0.0 0.0
						CHANNELS 6 Xposition Yposition Zposition Zrotation Xrotation Yrotation 
						End Site
						{
							OFFSET 0.0 0.0 0.0
						}
					}
				}
			}
		}
	}
}
MOTION
Frames:	5
Frame Time:	0.0333333
0.000000 0.000000 0.000000 0.000000 0.000000 -0.000000 -2.626860 91.401700 1.558920 85.484400 -2.155020 9.253120 15.735700 0.000005 -0.000001 93.655800 86.147400 -91.416700 8.984550 -0.406207 -0.000000 -0.079059 0.337992 4.475620 16.377300 -0.000001 -0.000001 14.697000 2.887190 -15.871300 6.456720 -0.000001 -0.000000 -3.525990 4.278700 -21.868400 12.994200 -0.242716 4.980390 -93.324000 8.306520 -68.098700 5.348090 -0.000007 -0.000001 -73.489300 -0.989707 -7.596330 24.328600 0.000019 0.000005 31.216500 -36.570000 -134.513000 22.291600 -0.000001 0.000005 37.191100 5.200480 2.705560 12.994500 -0.242716 -4.980390 88.203500 4.938740 -69.982000 -5.348130 -0.000001 -0.000004 -70.248400 32.488400 -4.146030 -24.328900 0.000322 -0.000009 1.171300 4.274240 -15.353700 -22.291500 -0.000108 -0.000004 -2.649690 5.291260 0.316023 -2.192480 -6.469440 -0.000000 -174.920000 0.554559 3.218210 39.081100 -0.000007 -0.000012 0.411878 -0.754309 28.637100 40.985400 -0.000006 -0.000013 1.694410 4.696370 -78.123300 11.754300 -0.000000 0.000003 -0.000525 0.176033 -9.436500 -2.192510 6.469440 -0.000001 -172.369000 6.797760 -170.772000 -39.081100 -0.002282 -0.040193 0.194273 -0.578386 18.270500 -40.985400 0.000008 0.000006 5.480110 1.881570 -74.015100 -11.754300 -0.000006 -0.000006 -0.011828 0.284494 -5.011190
0.000000 0.000000 0.000000 0.000000 0.000000 -0.000000 -2.616540 91.406900 1.519800 85.473000 -2.160100 9.182050 15.735700 0.000005 -0.000001 93.647900 86.135200 -91.408700 8.984550 -0.406207 -0.000000 -0.054792 0.338945 4.475880 16.377300 -0.000001 -0.000001 14.694400 2.858930 -15.788700 6.456720 -0.000001 -0.000000 -3.526720 4.196950 -21.789200 12.994200 -0.242716 4.980390 -93.312900 8.276610 -68.094300 5.348090 -0.000007 -0.000001 -73.454900 -1.096820 -7.705870 24.328600 0.000019 0.000005 31.237300 -36.470900 -134.423000 22.291600 -0.000001 0.000005 36.904600 5.198690 2.751810 12.994500 -0.242716 -4.980390 88.194200 4.958820 -69.961500 -5.348130 -0.000001 -0.000004 -70.387400 32.616700 -4.047760 -24.328900 0.000322 -0.000009 1.114080 4.075900 -15.315300 -22.291500 -0.000108 -0.000004 -2.571890 5.293360 0.257686 -2.192480 -6.469440 -0.000000 -174.938000 0.628126 3.113120 39.081100 -0.000007 -0.000012 0.409632 -0.749952 28.644900 40.985400 -0.000006 -0.000013 1.673560 4.599320 -78.060100 11.754300 -0.000000 0.000003 -0.000413 0.174315 -9.506310 -2.192510 6.469440 -0.000001 -172.349000 6.778740 -170.882000 -39.081100 -0.002282 -0.040193 0.194923 -0.580016 18.280500 -40.985400 0.000008 0.000006 5.477150 1.881870 -73.960500 -11.754300 -0.000006 -0.000006 -0.011933 0.285219 -4.981510
0.000000 0.000000 0.000000 0.000000 0.000000 -0.000000 -2.606450 91.424600 1.471750 85.459800 -2.214420 9.083560 15.735700 0.000005 -0.000001 93.662400 86.126600 -91.416700 8.984550 -0.406207 -0.000000 -0.037828 0.341882 4.488650 16.377300 -0.000001 -0.000001 14.652300 2.817690 -15.677800 6.456720 -0.000001 -0.000000 -3.572580 4.160350 -21.802600 12.994200 -0.242716 4.980390 -93.330800 8.314250 -68.076800 5.348090 -0.000007 -0.000001 -73.328000 -1.292280 -7.825340 24.328600 0.000019 0.000005 31.421000 -36.505700 -134.240000 22.291600 -0.000001 0.000005 36.840600 5.194340 2.860430 12.994500 -0.242716 -4.980390 88.187400 4.977780 -69.962700 -5.348130 -0.000001 -0.000004 -70.510800 32.652000 -3.978720 -24.328900 0.000322 -0.000009 1.124940 4.118330 -15.305900 -22.291500 -0.000108 -0.000004 -2.706630 5.291900 0.298368 -2.192480 -6.469440 -0.000000 -174.952000 0.629982 3.002900 39.081100 -0.000007 -0.000012 0.413529 -0.758299 28.606300 40.985400 -0.000006 -0.000013 1.661010 4.522550 -78.032900 11.754300 -0.000000 0.000003 -0.000470 0.175186 -9.470920 -2.192510 6.469440 -0.000001 -172.325000 6.739620 -170.971000 -39.081100 -0.002282 -0.040193 0.192488 -0.575436 18.197600 -40.985400 0.000008 0.000006 5.471300 1.885930 -73.883500 -11.754300 -0.000006 -0.000006 -0.011815 0.284401 -5.015020
0.000000 0.000000 0.000000 0.000000 0.000000 -0.000000 -2.583430 91.439500 1.426790 85.470200 -2.260040 8.977980 15.735700 0.000005 -0.000001 93.480100 86.116400 -91.231200 8.984550 -0.406207 -0.000000 -0.015377 0.318751 4.495110 16.377300 -0.000001 -0.000001 14.591400 2.807830 -15.625400 6.456720 -0.000001 -0.000000 -3.621930 4.135580 -21.768300 12.994200 -0.242716 4.980390 -93.337900 8.325610 -68.061200 5.348090 -0.000007 -0.000001 -73.242400 -1.483670 -7.897760 24.328600 0.000019 0.000005 31.345700 -36.390700 -134.246000 22.291600 -0.000001 0.000005 36.949700 5.186880 3.045780 12.994500 -0.242716 -4.980390 88.172500 5.031890 -70.010300 -5.348130 -0.000001 -0.000004 -70.572900 32.690000 -3.922540 -24.328900 0.000322 -0.000009 1.143520 4.178020 -15.335100 -22.291500 -0.000108 -0.000004 -2.673360 5.292930 0.269950 -2.192480 -6.469440 -0.000000 -174.981000 0.609167 2.888010 39.081100 -0.000007 -0.000012 0.410148 -0.753584 28.558900 40.985400 -0.000006 -0.000013 1.660270 4.470710 -77.962100 11.754300 -0.000000 0.000003 -0.000493 0.175551 -9.456080 -2.192510 6.469440 -0.000001 -172.357000 6.750810 -171.103000 -39.081100 -0.002282 -0.040193 0.191622 -0.573269 18.183700 -40.985400 0.000008 0.000006 5.473780 1.991920 -73.834100 -11.754300 -0.000006 -0.000006 -0.012075 0.286208 -4.940980
0.000000 0.000000 0.000000 0.000000 0.000000 -0.000000 -2.560540 91.461100 1.368700 85.458800 -2.244750 8.837760 15.735700 0.000005 -0.000001 93.239800 86.105900 -90.989100 8.984550 -0.406207 -0.000000 0.007990 0.287753 4.498660 16.377300 -0.000001 -0.000001 14.530200 2.736770 -15.542900 6.456720 -0.000001 -0.000000 -3.822110 4.097910 -21.711400 12.994200 -0.242716 4.980390 -93.305900 8.244380 -68.059300 5.348090 -0.000007 -0.000001 -73.334600 -1.580100 -7.979130 24.328600 0.000019 0.000005 31.258600 -36.163900 -134.190000 22.291600 -0.000001 0.000005 36.941800 5.186270 3.061070 12.994500 -0.242716 -4.980390 88.145300 5.094300 -69.963700 -5.348130 -0.000001 -0.000004 -70.595200 32.675500 -3.970170 -24.328900 0.000322 -0.000009 1.124810 4.119670 -15.299500 -22.291500 -0.000108 -0.000004 -2.794640 5.292670 0.276896 -2.192480 -6.469440 -0.000000 -175.011000 0.707911 2.732250 39.081100 -0.000007 -0.000012 0.407838 -0.751010 28.505300 40.985400 -0.000006 -0.000013 1.651080 4.395980 -77.932900 11.754300 -0.000000 0.000003 -0.000535 0.176198 -9.429800 -2.192510 6.469440 -0.000001 -172.335000 6.733290 -171.234000 -39.081100 -0.002282 -0.040193 0.189770 -0.571076 18.081200 -40.985400 0.000008 0.000006 5.457570 1.974160 -73.756800 -11.754300 -0.000006 -0.000006 -0.011688 0.283515 -5.051300
